<svg width="4873" height="1000" viewBox="0 0 2873 667" fill="none" xmlns="http://www.w3.org/2000/svg">
<path id="Vector" fill-rule="evenodd" clip-rule="evenodd" d="M-86 580.951H12.8736C111.747 580.951 308.465 580.951 506.212 508.911C702.929 436.87 900.677 292.788 1097.39 178.724C1295.14 63.6589 1491.86 -23.3903 1689.61 5.62608C1886.32 34.6425 2084.07 178.724 2280.79 278.78C2478.54 379.838 2675.25 436.87 2774.13 465.886L2873 494.903V667H2774.13C2675.25 667 2478.54 667 2280.79 667C2084.07 667 1886.32 667 1689.61 667C1491.86 667 1295.14 667 1097.39 667C900.677 667 702.929 667 506.212 667C308.465 667 111.747 667 12.8736 667H-86V580.951Z" fill="#A3D6F9"/>
</svg>
