<svg width="2537" height="617" viewBox="0 0 2537 617" fill="none" xmlns="http://www.w3.org/2000/svg">
<path id="Vector" fill-rule="evenodd" clip-rule="evenodd" d="M0 159.461L85 109.461C169 58.461 338 -43.539 507 20.461C677 83.461 846 312.461 1015 337.461C1184 362.461 1353 185.461 1522 121.461C1691 58.461 1860 109.461 2030 134.461C2199 159.461 2368 159.461 2452 159.461H2537V616.461H2452C2368 616.461 2199 616.461 2030 616.461C1860 616.461 1691 616.461 1522 616.461C1353 616.461 1184 616.461 1015 616.461C846 616.461 677 616.461 507 616.461C338 616.461 169 616.461 85 616.461H0V159.461Z" fill="#D5E9F7"/>
</svg>
