<svg width="11962" height="2445" viewBox="0 0 11962 2445" fill="none" xmlns="http://www.w3.org/2000/svg">
<path id="Vector" fill-rule="evenodd" clip-rule="evenodd" d="M0 632.452L400.777 434.143C796.838 231.867 1593.68 -172.684 2390.51 81.1523C3192.07 331.022 3988.91 1239.28 4785.74 1338.43C5582.58 1437.59 6379.42 735.573 7176.26 481.737C7973.1 231.867 8769.93 434.143 9571.49 533.298C10368.3 632.452 11165.2 632.452 11561.2 632.452H11962V2445H11561.2C11165.2 2445 10368.3 2445 9571.49 2445C8769.93 2445 7973.1 2445 7176.26 2445C6379.42 2445 5582.58 2445 4785.74 2445C3988.91 2445 3192.07 2445 2390.51 2445C1593.68 2445 796.838 2445 400.777 2445H0V632.452Z" fill="#D5E9F7"/>
</svg>
