<svg width="1152" height="451" viewBox="0 0 1152 451" fill="none" xmlns="http://www.w3.org/2000/svg">
<path id="Vector" fill-rule="evenodd" clip-rule="evenodd" d="M0 46.2789L21 37.5124C43 30.207 85 12.6739 128 3.90739C171 -3.39804 213 -3.39804 256 30.207C299 63.812 341 131.022 384 139.788C427 147.094 469 97.417 512 106.183C555 113.489 597 180.699 640 240.603C683 299.047 725 350.185 768 350.185C811 350.185 853 299.047 896 290.28C939 282.975 981 316.58 1024 332.652C1067 350.185 1109 350.185 1131 350.185H1152V451H1131C1109 451 1067 451 1024 451C981 451 939 451 896 451C853 451 811 451 768 451C725 451 683 451 640 451C597 451 555 451 512 451C469 451 427 451 384 451C341 451 299 451 256 451C213 451 171 451 128 451C85 451 43 451 21 451H0V46.2789Z" fill="#8FD0FB"/>
</svg>
